<svg width="42" height="42" viewBox="0 0 42 42" fill="none" xmlns="http://www.w3.org/2000/svg">
<rect width="42" height="42" fill="#172A57"/>
<path d="M20.9968 15.7096C20.8781 15.6148 20.809 15.4711 20.809 15.3191V7.81702L30.053 15.2095C30.409 15.4941 30.6162 15.9252 30.6162 16.3809V19.2414C30.6162 20.9182 28.6768 21.8506 27.3672 20.8035L20.9968 15.7096Z" fill="#C97D00"/>
<path d="M18.6223 26.9005C17.9676 27.4246 16.9974 26.9585 16.9974 26.1198V20.4563L20.8088 17.409V25.1504L18.6223 26.9005Z" fill="#F5A623"/>
<path d="M30.6162 28.752C30.6162 28.8225 30.6162 28.8577 30.6157 28.8801C30.579 30.5153 28.7019 31.4174 27.4022 30.4246C27.3843 30.411 27.3568 30.389 27.3018 30.3449L20.809 25.1505V17.4091L30.2333 24.9458C30.2406 24.9516 30.2443 24.9546 30.2477 24.9574C30.4785 25.1453 30.6135 25.4262 30.6162 25.7238C30.6162 25.7283 30.6162 25.733 30.6162 25.7424V28.752Z" fill="#C97D00"/>
<path d="M16.0285 19.381C15.9098 19.4759 15.8407 19.6196 15.8407 19.7716V28.4087C15.8407 28.8646 15.6334 29.2957 15.2773 29.5803L14.2489 30.4026C12.9393 31.4496 11 30.5172 11 28.8404V16.3813C11 15.9255 11.2073 15.4944 11.5633 15.2098L20.8088 7.81732V15.3194C20.8088 15.4713 20.7397 15.6151 20.621 15.7099L16.0285 19.381Z" fill="#F5A623"/>
</svg>
