<svg class="h-8 -ml-4" width="123" height="41" viewBox="0 0 123 41" fill="none" xmlns="http://www.w3.org/2000/svg">
    <path d="M37.541 34H32.1445V6.92969H37.541V34ZM55.8771 32.0312C53.6974 33.5781 51.3127 34.3516 48.7228 34.3516C46.8009 34.3516 45.0724 33.9414 43.5373 33.1211C42.0138 32.2891 40.8068 31.1641 39.9162 29.7461C39.0373 28.3281 38.5978 26.7285 38.5978 24.9473C38.5978 23.248 38.9963 21.7305 39.7931 20.3945C40.6017 19.0586 41.6974 18.0039 43.0802 17.2305C44.463 16.457 46.0334 16.0703 47.7912 16.0703C49.6076 16.0703 51.2072 16.498 52.59 17.3535C53.9728 18.1973 55.0509 19.3809 55.8244 20.9043C56.5978 22.416 56.9845 24.168 56.9845 26.1602V26.7227H44.0295C44.2404 27.4141 44.5861 28.0234 45.0666 28.5508C45.547 29.0664 46.1447 29.4766 46.8595 29.7812C47.5744 30.0859 48.3947 30.2383 49.3205 30.2383C51.1134 30.2383 52.7834 29.6582 54.3302 28.498L55.8771 32.0312ZM43.8009 24.1562H52.3263C52.2326 23.3945 51.9923 22.7266 51.6056 22.1523C51.2306 21.5664 50.7326 21.1094 50.1115 20.7812C49.5021 20.4531 48.8166 20.2891 48.0548 20.2891C47.2814 20.2891 46.59 20.459 45.9806 20.7988C45.383 21.1387 44.8966 21.5957 44.5216 22.1699C44.1466 22.7441 43.9064 23.4062 43.8009 24.1562ZM75.5667 34H70.5218V25C70.5218 23.6289 70.1937 22.5566 69.5374 21.7832C68.8929 20.998 68.0081 20.6055 66.8831 20.6055C65.7113 20.6055 64.7796 21.0156 64.0882 21.8359C63.4085 22.6445 63.0687 23.7461 63.0687 25.1406V34H58.0238V16.4219H62.1019L62.2777 19.2344C62.9105 18.2031 63.7366 17.418 64.7562 16.8789C65.7757 16.3398 66.9769 16.0703 68.3597 16.0703C70.598 16.0703 72.3558 16.7617 73.6331 18.1445C74.9222 19.5156 75.5667 21.4141 75.5667 23.8398V34ZM82.3891 34H77.3442V7.63281H82.3891V23.8398L84.1118 21.7656L89.1743 16.4219H95.4848L88.0493 24.2441L96.3638 34H89.8423L84.5864 27.4082L82.3891 29.4121V34ZM99.319 12.2207C98.651 12.2207 98.0885 11.9863 97.6315 11.5176C97.1745 11.0488 96.9459 10.4805 96.9459 9.8125C96.9459 9.14453 97.1745 8.58203 97.6315 8.125C98.0885 7.65625 98.651 7.42188 99.319 7.42188C99.9987 7.42188 100.567 7.65625 101.024 8.125C101.493 8.58203 101.727 9.14453 101.727 9.8125C101.727 10.4805 101.493 11.0488 101.024 11.5176C100.567 11.9863 99.9987 12.2207 99.319 12.2207ZM101.85 34H96.8053V16.4219H101.85V34ZM120.221 32.0312C118.042 33.5781 115.657 34.3516 113.067 34.3516C111.145 34.3516 109.417 33.9414 107.882 33.1211C106.358 32.2891 105.151 31.1641 104.261 29.7461C103.382 28.3281 102.942 26.7285 102.942 24.9473C102.942 23.248 103.341 21.7305 104.137 20.3945C104.946 19.0586 106.042 18.0039 107.425 17.2305C108.807 16.457 110.378 16.0703 112.136 16.0703C113.952 16.0703 115.552 16.498 116.934 17.3535C118.317 18.1973 119.395 19.3809 120.169 20.9043C120.942 22.416 121.329 24.168 121.329 26.1602V26.7227H108.374C108.585 27.4141 108.93 28.0234 109.411 28.5508C109.891 29.0664 110.489 29.4766 111.204 29.7812C111.919 30.0859 112.739 30.2383 113.665 30.2383C115.458 30.2383 117.128 29.6582 118.675 28.498L120.221 32.0312ZM108.145 24.1562H116.671C116.577 23.3945 116.337 22.7266 115.95 22.1523C115.575 21.5664 115.077 21.1094 114.456 20.7812C113.846 20.4531 113.161 20.2891 112.399 20.2891C111.626 20.2891 110.934 20.459 110.325 20.7988C109.727 21.1387 109.241 21.5957 108.866 22.1699C108.491 22.7441 108.251 23.4062 108.145 24.1562Z" fill="white"></path>
    <path d="M11.9436 15.4297C11.8249 15.3349 11.7559 15.1912 11.7559 15.0392V5.99983L22.9471 14.9495C23.3031 15.2341 23.5103 15.6652 23.5103 16.1209V20.5185C23.5103 22.1953 21.5709 23.1277 20.2613 22.0806L11.9436 15.4297Z" fill="#C97D00"></path><path d="M8.81241 29.131C8.15769 29.6551 7.1875 29.1889 7.1875 28.3503V21.1491L11.7556 17.4967V26.7751L8.81241 29.131Z" fill="#F5A623"></path>
    <path d="M23.5103 31.9346C23.5103 32.0051 23.5103 32.0403 23.5098 32.0628C23.4731 33.6979 21.596 34.6 20.2963 33.6072C20.2784 33.5936 20.2509 33.5716 20.1959 33.5276L11.7559 26.7753V17.4969L23.1273 26.5907C23.1347 26.5965 23.1383 26.5995 23.1418 26.6023C23.3725 26.7902 23.5076 27.0711 23.5103 27.3687C23.5103 27.3732 23.5103 27.3779 23.5103 27.3873V31.9346Z" fill="#C97D00"></path><path d="M5.98959 19.8899C5.87089 19.9848 5.80178 20.1285 5.80178 20.2805V30.8235C5.80178 31.2793 5.5945 31.7104 5.23845 31.9951L3.2489 33.5857C1.93927 34.6327 0 33.7003 0 32.0235V16.1216C0 15.6658 0.20726 15.2347 0.563267 14.95L11.7564 6.00038V15.0397C11.7564 15.1917 11.6873 15.3354 11.5686 15.4303L5.98959 19.8899Z" fill="#F5A623"></path>
</svg>